<svg width="32.000000" height="32.000000" viewBox="0 0 32 32" fill="none" xmlns="http://www.w3.org/2000/svg" xmlns:xlink="http://www.w3.org/1999/xlink">
	<desc>
			Created with Pixso.
	</desc>
	<defs/>
	<path id="Vector" d="M27.145 23.669C26.7361 24.6308 26.231 25.5479 25.6372 26.406C24.844 27.5488 24.1926 28.3385 23.6936 28.778C22.9182 29.4962 22.0852 29.8657 21.1946 29.8865C20.5564 29.8865 19.7854 29.7033 18.8875 29.3308C17.9866 28.9598 17.1594 28.778 16.4019 28.778C15.6086 28.778 14.7581 28.9598 13.8467 29.3308C12.937 29.7033 12.2014 29.8985 11.6387 29.9163C10.7866 29.9536 9.93433 29.5751 9.08521 28.778C8.54297 28.3012 7.86523 27.4818 7.05127 26.3226C6.17993 25.0874 5.46362 23.6496 4.90234 22.0152C4.30127 20.2466 4 18.5362 4 16.8793C4 14.9827 4.40625 13.3452 5.21997 11.9745C5.83545 10.8979 6.71533 9.99945 7.77515 9.36557C8.81982 8.73335 10.0127 8.39293 11.2312 8.37924C11.9104 8.37924 12.801 8.59081 13.9043 9.008C15.0076 9.42517 15.7166 9.63675 16.0251 9.63675C16.2585 9.63675 17.0427 9.38792 18.3779 8.89476C19.6379 8.43735 20.7012 8.24812 21.5725 8.32262C23.9358 8.51482 25.7095 9.45349 26.8896 11.1461C24.7776 12.4378 23.7334 14.2451 23.7542 16.565C23.7717 18.3723 24.4231 19.8756 25.6992 21.0691C26.2634 21.6137 26.9216 22.0495 27.6414 22.3549C27.4849 22.8123 27.3193 23.2488 27.145 23.669ZM21.7292 2.16768C21.7292 3.58311 21.2151 4.90619 20.1946 6.12943C18.96 7.5836 17.4683 8.42543 15.8511 8.29282C15.8298 8.11484 15.8193 7.9357 15.8198 7.75644C15.8198 6.39612 16.4048 4.94194 17.449 3.75148C17.969 3.14955 18.6306 2.64743 19.4326 2.24812C20.2329 1.85478 20.9893 1.63725 21.7012 1.60001C21.7202 1.79073 21.7292 1.97993 21.7292 2.16768Z" fill="#0071E4" fill-opacity="1.000000" fill-rule="nonzero"/>
</svg>
